# Blender v2.78 (sub 0) OBJ File: ''
# www.blender.org
mtllib rainbow1.mtl
o Cylinder.002
v -0.025649 2.025868 -0.452536
v -0.025649 2.028187 -0.052536
v 0.370062 2.018627 -0.452511
v 0.364735 1.988461 -0.052536
v 0.739718 1.873627 -0.452536
v 0.739727 1.873645 -0.052536
v 1.085492 1.688807 -0.452536
v 1.091517 1.697839 -0.052536
v 1.388565 1.440082 -0.452536
v 1.397474 1.448983 -0.052536
v 1.637290 1.137009 -0.452536
v 1.659680 1.151969 -0.052536
v 1.822110 0.791235 -0.452536
v 1.822110 0.791235 -0.052536
v 1.935922 0.416049 -0.452536
v 2.013717 0.431522 -0.052536
v 2.048497 0.025868 -0.452536
v 1.974351 0.025868 -0.052536
v 1.986949 -0.374461 -0.452536
v 1.935922 -0.364312 -0.052536
v 1.822110 -0.739498 -0.452536
v 1.822110 -0.739498 -0.052536
v 1.637290 -1.085272 -0.452536
v 1.665275 -1.103971 -0.052536
v 1.426842 -1.426623 -0.452536
v 1.388565 -1.388345 -0.052536
v 1.085492 -1.637071 -0.452536
v 1.085492 -1.637071 -0.052536
v 0.739718 -1.821891 -0.452536
v 0.739718 -1.821891 -0.052536
v 0.364531 -1.935702 -0.452536
v 0.364531 -1.935702 -0.052536
v -0.025649 -1.974132 -0.452536
v -0.025649 -2.039981 -0.052536
v -0.415830 -1.935702 -0.452536
v -0.415830 -1.935702 -0.052536
v -0.791017 -1.821890 -0.452536
v -0.791017 -1.821890 -0.052536
v -1.136790 -1.637070 -0.452536
v -1.136790 -1.637070 -0.052536
v -1.478142 -1.426623 -0.452536
v -1.439863 -1.388344 -0.052536
v -1.688589 -1.085271 -0.452536
v -1.716574 -1.103970 -0.052536
v -1.873409 -0.739497 -0.452536
v -1.873409 -0.739497 -0.052536
v -2.038249 -0.374460 -0.452536
v -1.987220 -0.364311 -0.052536
v -2.099791 0.025870 -0.452536
v -2.025649 0.025870 -0.052536
v -1.987219 0.416051 -0.452536
v -2.065011 0.431524 -0.052536
v -1.873407 0.791237 -0.452536
v -1.873407 0.791237 -0.052536
v -1.688587 1.137011 -0.452536
v -1.710976 1.151971 -0.052536
v -1.439861 1.440084 -0.452536
v -1.448769 1.448985 -0.052536
v -1.136787 1.688809 -0.452536
v -1.142813 1.697841 -0.052536
v -0.791013 1.873628 -0.452536
v -0.791022 1.873646 -0.052536
v -0.421356 2.018628 -0.452511
v -0.416030 1.988461 -0.052536
vn 0.0000 0.9994 0.0352
vn 0.1964 0.9798 0.0368
vn 0.1961 0.9799 0.0368
vn 0.3953 0.9185 0.0121
vn 0.5488 0.8357 -0.0214
vn 0.6993 0.7137 -0.0393
vn 0.6993 0.7137 -0.0392
vn 0.8351 0.5485 -0.0415
vn 0.8352 0.5484 -0.0415
vn 0.9089 0.4118 -0.0651
vn 0.9694 0.2397 -0.0522
vn 0.9690 0.2414 -0.0527
vn 0.9969 -0.0175 0.0759
vn 0.9970 -0.0171 0.0756
vn 0.9646 -0.2396 0.1103
vn 0.9647 -0.2387 0.1107
vn 0.9193 -0.3933 0.0112
vn 0.8499 -0.5269 -0.0083
vn 0.8501 -0.5266 -0.0084
vn 0.6909 -0.7214 0.0464
vn 0.6913 -0.7211 0.0464
vn 0.5266 -0.8495 0.0334
vn 0.3827 -0.9239 0.0000
vn 0.2354 -0.9710 -0.0404
vn 0.0000 -0.9966 -0.0820
vn -0.2354 -0.9710 -0.0404
vn -0.3827 -0.9239 0.0000
vn -0.5266 -0.8495 0.0334
vn -0.6909 -0.7214 0.0464
vn -0.6913 -0.7211 0.0464
vn -0.8499 -0.5269 -0.0083
vn -0.8501 -0.5266 -0.0084
vn -0.9193 -0.3933 0.0112
vn -0.9646 -0.2396 0.1103
vn -0.9647 -0.2387 0.1107
vn -0.9969 -0.0175 0.0759
vn -0.9970 -0.0171 0.0756
vn -0.9694 0.2397 -0.0522
vn -0.9690 0.2414 -0.0527
vn -0.9089 0.4118 -0.0651
vn -0.8351 0.5485 -0.0415
vn -0.8352 0.5484 -0.0415
vn -0.6993 0.7137 -0.0392
vn -0.5488 0.8357 -0.0214
vn -0.3953 0.9185 0.0121
vn -0.1964 0.9798 0.0368
vn -0.1961 0.9799 0.0368
usemtl Material.001
s 1
f 1//1 2//1 4//2 3//3
f 3//3 4//2 6//4 5//4
f 5//4 6//4 8//5 7//5
f 7//5 8//5 10//6 9//7
f 9//7 10//6 12//8 11//9
f 11//9 12//8 14//10 13//10
f 13//10 14//10 16//11 15//12
f 15//12 16//11 18//13 17//14
f 17//14 18//13 20//15 19//16
f 19//16 20//15 22//17 21//17
f 21//17 22//17 24//18 23//19
f 23//19 24//18 26//20 25//21
f 25//21 26//20 28//22 27//22
f 27//22 28//22 30//23 29//23
f 29//23 30//23 32//24 31//24
f 31//24 32//24 34//25 33//25
f 33//25 34//25 36//26 35//26
f 35//26 36//26 38//27 37//27
f 37//27 38//27 40//28 39//28
f 39//28 40//28 42//29 41//30
f 41//30 42//29 44//31 43//32
f 43//32 44//31 46//33 45//33
f 45//33 46//33 48//34 47//35
f 47//35 48//34 50//36 49//37
f 49//37 50//36 52//38 51//39
f 51//39 52//38 54//40 53//40
f 53//40 54//40 56//41 55//42
f 55//42 56//41 58//43 57//43
f 57//43 58//43 60//44 59//44
f 59//44 60//44 62//45 61//45
f 61//45 62//45 64//46 63//47
f 63//47 64//46 2//1 1//1
o Cylinder.001
v 0.004090 2.037143 -0.204490
v 0.004090 2.037143 0.195510
v 0.397117 2.020907 -0.205094
v 0.394271 1.998714 0.195510
v 0.773276 1.895646 -0.204717
v 0.769461 1.884907 0.195511
v 1.115231 1.700083 -0.204490
v 1.115231 1.700083 0.195510
v 1.418304 1.451357 -0.204490
v 1.418388 1.451630 0.195498
v 1.667030 1.148284 -0.204490
v 1.672620 1.150910 0.195182
v 1.851849 0.802510 -0.204490
v 1.851849 0.802510 0.195510
v 1.968515 0.429377 -0.204600
v 1.965661 0.427324 0.195510
v 2.060232 0.034718 -0.205780
v 2.004090 0.037144 0.195510
v 1.966923 -0.353824 -0.204429
v 1.970170 -0.351925 0.195624
v 1.851849 -0.728223 -0.204490
v 1.862381 -0.738159 0.195265
v 1.667078 -1.073999 -0.204492
v 1.687294 -1.087558 0.195530
v 1.424112 -1.383174 -0.204937
v 1.449740 -1.410542 0.195602
v 1.116939 -1.626897 -0.204442
v 1.115390 -1.626668 0.195552
v 0.794447 -1.855826 -0.204514
v 0.797223 -1.846269 0.196159
v 0.393303 -1.939896 -0.204738
v 0.436101 -2.083089 0.198036
v 0.004090 -1.962856 -0.204490
v 0.004090 -2.141579 0.197648
v -0.385124 -1.939896 -0.204738
v -0.427922 -2.083088 0.198036
v -0.786267 -1.855826 -0.204514
v -0.789044 -1.846268 0.196159
v -1.108760 -1.626897 -0.204442
v -1.107211 -1.626667 0.195552
v -1.415932 -1.383173 -0.204937
v -1.441560 -1.410541 0.195602
v -1.658898 -1.073998 -0.204492
v -1.679115 -1.087557 0.195530
v -1.843669 -0.728222 -0.204490
v -1.854202 -0.738158 0.195265
v -1.958742 -0.353822 -0.204429
v -1.961989 -0.351923 0.195624
v -2.052052 0.034720 -0.205780
v -1.995910 0.037146 0.195510
v -1.960334 0.429379 -0.204600
v -1.957480 0.427326 0.195510
v -1.843668 0.802513 -0.204490
v -1.843668 0.802513 0.195510
v -1.658848 1.148286 -0.204490
v -1.664438 1.150912 0.195182
v -1.410121 1.451359 -0.204490
v -1.410206 1.451632 0.195498
v -1.107048 1.700084 -0.204490
v -1.107048 1.700084 0.195510
v -0.765092 1.895647 -0.204717
v -0.761277 1.884908 0.195511
v -0.388933 2.020908 -0.205094
v -0.386087 1.998715 0.195510
vn 0.0000 0.9996 0.0280
vn 0.1879 0.9815 0.0350
vn 0.1874 0.9816 0.0350
vn 0.3955 0.9180 0.0280
vn 0.3952 0.9181 0.0280
vn 0.5614 0.8275 0.0069
vn 0.7043 0.7098 -0.0041
vn 0.7044 0.7098 -0.0041
vn 0.8317 0.5552 -0.0078
vn 0.8315 0.5554 -0.0078
vn 0.9246 0.3810 -0.0018
vn 0.9726 0.2292 0.0384
vn 0.9726 0.2294 0.0383
vn 0.9975 0.0017 0.0700
vn 0.9975 0.0005 0.0700
vn 0.9749 -0.2214 0.0235
vn 0.9748 -0.2219 0.0232
vn 0.9273 -0.3727 -0.0338
vn 0.9279 -0.3712 -0.0335
vn 0.8435 -0.5334 -0.0622
vn 0.8436 -0.5333 -0.0622
vn 0.6957 -0.7157 -0.0613
vn 0.6959 -0.7154 -0.0614
vn 0.5779 -0.8159 -0.0179
vn 0.5780 -0.8159 -0.0180
vn 0.4834 -0.8716 -0.0816
vn 0.4814 -0.8725 -0.0835
vn 0.2381 -0.9302 -0.2794
vn 0.2355 -0.9303 -0.2812
vn 0.0000 -0.9268 -0.3755
vn -0.2381 -0.9302 -0.2794
vn -0.2355 -0.9303 -0.2812
vn -0.4834 -0.8716 -0.0816
vn -0.4814 -0.8725 -0.0835
vn -0.5779 -0.8159 -0.0179
vn -0.5780 -0.8159 -0.0180
vn -0.6957 -0.7157 -0.0613
vn -0.6959 -0.7154 -0.0614
vn -0.8435 -0.5334 -0.0622
vn -0.8436 -0.5333 -0.0622
vn -0.9273 -0.3727 -0.0338
vn -0.9279 -0.3712 -0.0335
vn -0.9749 -0.2214 0.0235
vn -0.9748 -0.2218 0.0232
vn -0.9975 0.0017 0.0700
vn -0.9975 0.0005 0.0700
vn -0.9726 0.2292 0.0384
vn -0.9726 0.2294 0.0383
vn -0.9246 0.3810 -0.0018
vn -0.8317 0.5552 -0.0078
vn -0.8315 0.5554 -0.0078
vn -0.7043 0.7098 -0.0041
vn -0.7044 0.7098 -0.0041
vn -0.5614 0.8275 0.0069
vn -0.5613 0.8275 0.0069
vn -0.3955 0.9180 0.0280
vn -0.3952 0.9181 0.0280
vn -0.1879 0.9815 0.0350
vn -0.1874 0.9817 0.0350
usemtl Material.002
s 1
f 65//48 66//48 68//49 67//50
f 67//50 68//49 70//51 69//52
f 69//52 70//51 72//53 71//53
f 71//53 72//53 74//54 73//55
f 73//55 74//54 76//56 75//57
f 75//57 76//56 78//58 77//58
f 77//58 78//58 80//59 79//60
f 79//60 80//59 82//61 81//62
f 81//62 82//61 84//63 83//64
f 83//64 84//63 86//65 85//66
f 85//66 86//65 88//67 87//68
f 87//68 88//67 90//69 89//70
f 89//70 90//69 92//71 91//72
f 91//72 92//71 94//73 93//74
f 93//74 94//73 96//75 95//76
f 95//76 96//75 98//77 97//77
f 97//77 98//77 100//78 99//79
f 99//79 100//78 102//80 101//81
f 101//81 102//80 104//82 103//83
f 103//83 104//82 106//84 105//85
f 105//85 106//84 108//86 107//87
f 107//87 108//86 110//88 109//89
f 109//89 110//88 112//90 111//91
f 111//91 112//90 114//92 113//93
f 113//93 114//92 116//94 115//95
f 115//95 116//94 118//96 117//96
f 117//96 118//96 120//97 119//98
f 119//98 120//97 122//99 121//100
f 121//100 122//99 124//101 123//102
f 123//102 124//101 126//103 125//104
f 125//104 126//103 128//105 127//106
f 127//106 128//105 66//48 65//48
o Cylinder
v 0.002552 2.033463 0.113651
v 0.002552 2.228864 0.514301
v 0.392732 1.995034 0.113651
v 0.408402 2.049801 0.512544
v 0.767918 1.881222 0.113651
v 0.772509 1.885577 0.513585
v 1.114262 1.698130 0.113753
v 1.114597 1.697849 0.513777
v 1.416849 1.447703 0.113655
v 1.457354 1.493554 0.512962
v 1.665491 1.144604 0.113651
v 1.665640 1.144603 0.513653
v 1.850319 0.798837 0.113652
v 1.850311 0.798830 0.513651
v 1.966873 0.425559 0.113774
v 1.964347 0.423834 0.513648
v 2.026041 0.030816 0.113343
v 2.078221 0.042557 0.513997
v 1.964122 -0.356717 0.113651
v 1.995307 -0.371980 0.514634
v 1.850311 -0.731903 0.113651
v 1.850311 -0.731903 0.513651
v 1.665491 -1.077677 0.113651
v 1.665491 -1.077677 0.513651
v 1.416765 -1.380750 0.113651
v 1.416765 -1.380750 0.513651
v 1.113908 -1.629632 0.113638
v 1.113692 -1.629476 0.513651
v 0.774870 -1.828318 0.112711
v 0.767918 -1.814296 0.513651
v 0.393581 -1.935788 0.113139
v 0.402309 -1.948229 0.514128
v 0.002551 -1.976213 0.112950
v 0.002551 -2.040430 0.515823
v -0.388479 -1.935788 0.113139
v -0.397207 -1.948228 0.514128
v -0.769768 -1.828318 0.112711
v -0.762816 -1.814295 0.513651
v -1.108806 -1.629631 0.113638
v -1.108590 -1.629475 0.513651
v -1.411663 -1.380749 0.113651
v -1.411663 -1.380749 0.513651
v -1.660388 -1.077676 0.113651
v -1.660388 -1.077676 0.513651
v -1.845208 -0.731902 0.113651
v -1.845208 -0.731902 0.513651
v -1.959019 -0.356716 0.113651
v -1.990205 -0.371978 0.514634
v -2.020938 0.030818 0.113343
v -2.073117 0.042559 0.513997
v -1.961770 0.425561 0.113774
v -1.959244 0.423836 0.513648
v -1.845215 0.798840 0.113652
v -1.845207 0.798832 0.513651
v -1.660386 1.144606 0.113651
v -1.660535 1.144605 0.513653
v -1.411744 1.447705 0.113655
v -1.452249 1.493556 0.512962
v -1.109157 1.698131 0.113753
v -1.109491 1.697850 0.513777
v -0.762813 1.881223 0.113651
v -0.767403 1.885578 0.513585
v -0.387626 1.995034 0.113651
v -0.403296 2.049803 0.512544
vn 0.0000 0.9529 -0.3032
vn 0.3027 0.9343 -0.1885
vn 0.3030 0.9343 -0.1878
vn 0.4141 0.9092 -0.0426
vn 0.4135 0.9095 -0.0429
vn 0.5255 0.8498 -0.0417
vn 0.5254 0.8498 -0.0417
vn 0.7052 0.7049 -0.0762
vn 0.7067 0.7034 -0.0762
vn 0.8515 0.5230 -0.0373
vn 0.8515 0.5231 -0.0374
vn 0.9230 0.3846 0.0017
vn 0.9230 0.3847 0.0017
vn 0.9662 0.2561 -0.0298
vn 0.9661 0.2562 -0.0297
vn 0.9962 0.0233 -0.0842
vn 0.9962 0.0168 -0.0849
vn 0.9640 -0.2559 -0.0728
vn 0.9643 -0.2542 -0.0734
vn 0.9150 -0.4028 -0.0216
vn 0.9150 -0.4028 -0.0215
vn 0.8314 -0.5556 0.0000
vn 0.7072 -0.7070 0.0002
vn 0.5638 -0.8258 0.0101
vn 0.5637 -0.8259 0.0101
vn 0.3999 -0.9165 0.0105
vn 0.4001 -0.9164 0.0106
vn 0.2373 -0.9703 -0.0470
vn 0.2362 -0.9705 -0.0477
vn 0.0000 -0.9953 -0.0967
vn -0.2373 -0.9703 -0.0470
vn -0.2362 -0.9705 -0.0477
vn -0.3999 -0.9165 0.0105
vn -0.4001 -0.9164 0.0106
vn -0.5638 -0.8258 0.0101
vn -0.5637 -0.8259 0.0101
vn -0.7072 -0.7070 0.0002
vn -0.8314 -0.5556 0.0000
vn -0.9150 -0.4028 -0.0216
vn -0.9150 -0.4028 -0.0215
vn -0.9640 -0.2559 -0.0728
vn -0.9643 -0.2542 -0.0734
vn -0.9962 0.0233 -0.0842
vn -0.9962 0.0168 -0.0849
vn -0.9662 0.2561 -0.0298
vn -0.9661 0.2562 -0.0297
vn -0.9230 0.3846 0.0017
vn -0.9230 0.3847 0.0017
vn -0.8515 0.5230 -0.0373
vn -0.8515 0.5231 -0.0374
vn -0.7052 0.7049 -0.0762
vn -0.7067 0.7034 -0.0762
vn -0.5255 0.8498 -0.0417
vn -0.5254 0.8498 -0.0417
vn -0.4141 0.9092 -0.0426
vn -0.4135 0.9095 -0.0429
vn -0.3027 0.9343 -0.1885
vn -0.3030 0.9343 -0.1878
usemtl Material.003
s 1
f 129//107 130//107 132//108 131//109
f 131//109 132//108 134//110 133//111
f 133//111 134//110 136//112 135//113
f 135//113 136//112 138//114 137//115
f 137//115 138//114 140//116 139//117
f 139//117 140//116 142//118 141//119
f 141//119 142//118 144//120 143//121
f 143//121 144//120 146//122 145//123
f 145//123 146//122 148//124 147//125
f 147//125 148//124 150//126 149//127
f 149//127 150//126 152//128 151//128
f 151//128 152//128 154//129 153//129
f 153//129 154//129 156//130 155//131
f 155//131 156//130 158//132 157//133
f 157//133 158//132 160//134 159//135
f 159//135 160//134 162//136 161//136
f 161//136 162//136 164//137 163//138
f 163//138 164//137 166//139 165//140
f 165//140 166//139 168//141 167//142
f 167//142 168//141 170//143 169//143
f 169//143 170//143 172//144 171//144
f 171//144 172//144 174//145 173//146
f 173//146 174//145 176//147 175//148
f 175//148 176//147 178//149 177//150
f 177//150 178//149 180//151 179//152
f 179//152 180//151 182//153 181//154
f 181//154 182//153 184//155 183//156
f 183//156 184//155 186//157 185//158
f 185//158 186//157 188//159 187//160
f 187//160 188//159 190//161 189//162
f 189//162 190//161 192//163 191//164
f 191//164 192//163 130//107 129//107
